<?xml version="1.0" encoding="UTF-8"?>
<svg id="Layer_1" xmlns="http://www.w3.org/2000/svg" xmlns:xlink="http://www.w3.org/1999/xlink" version="1.1" viewBox="0 0 1024 1024">
  <!-- Generator: Adobe Illustrator 30.2.1, SVG Export Plug-In . SVG Version: 2.1.1 Build 1)  -->
  <defs>
    <style>
      .st0 {
        fill: #ec0002;
      }

      .st1 {
        fill: #ffb700;
      }
    </style>
  </defs>
  <rect class="st1" x="-.3" y="-.4" width="1024.3" height="1024.4"/>
  <rect class="st0" x="157.1" y="110.4" width="709.7" height="808.9" rx="10" ry="10"/>
  <g id="pzMgTE">
    <image id="pzMgTE1" data-name="pzMgTE" width="275" height="183" transform="translate(2229.5 -268.6) rotate(90) scale(4.4)" xlink:href="pulseback-icon-1.png"/>
  </g>
  <path class="st1" d="M141,381.4s9,19.8,26.4,19.8,165.6-233.1,176.7-238.7,17.6-7.6,29.7,0,239.7,407.7,246.6,415,12.6,5.4,19.5.5c6.2-5.2,194.3-176.5,216.3-178.4s35.5,16.5,35.5,16.5l-.9,68.1s-.4,19.6-18.2,9.6-223.9,170.6-230.7,176.4c-8.6,6.7-18.2,8.6-25.2-.3-10.3-15.6-244.5-479.2-246.6-481-4.1-3.6-12.8-4.1-19,0s-216.7,434.8-216.7,434.8l6.6-242.2Z"/>
</svg>