<?xml version="1.0" encoding="UTF-8"?>
<svg id="Layer_1" xmlns="http://www.w3.org/2000/svg" version="1.1" viewBox="0 0 32 32">
  <!-- Generator: Adobe Illustrator 30.2.1, SVG Export Plug-In . SVG Version: 2.1.1 Build 1)  -->
  <defs>
    <style>
      .st0 {
        fill: #ec0002;
      }
    </style>
  </defs>
  <path class="st0" d="M3.3,11.8c.7,0,6.2-8.8,6.7-9,.6-.3.7-.3,1.1,0,.2.1,9,15.4,9.3,15.6.3.3.5.2.7,0,.2-.2,7.3-6.6,8.1-6.7.1,0,.3,0,.4,0V1.2c0-.2-.2-.4-.4-.4H3.3c-.2,0-.4.2-.4.4v10.5c.1,0,.2,0,.4,0Z"/>
  <path class="st0" d="M21.2,23.9c-.3.3-.7.3-.9,0-.4-.6-9.2-17-9.3-17.1-.2-.1-.5-.2-.7,0-.2.1-5.2,7.4-7.3,11.6v12.5c0,.2.2.4.4.4h26c.2,0,.4-.4.4-.4v-13.6c-1.4-1.5-8.2,6.4-8.5,6.6Z"/>
</svg>